<?xml version="1.0" encoding="UTF-8"?>
<svg version="1.1" xmlns="http://www.w3.org/2000/svg" width="1609" height="377">
<path d="M0 0 C530.97 0 1061.94 0 1609 0 C1609 124.41 1609 248.82 1609 377 C1078.03 377 547.06 377 0 377 C0 252.59 0 128.18 0 0 Z " fill="#F5BA42" transform="translate(0,0)"/>
<path d="M0 0 C8.93074874 -0.50068083 15.70923922 2.43267931 22.69140625 7.95703125 C31.39126131 16.69454802 33.34266001 30.66901907 36.08349609 42.29882812 C36.52585022 44.13371121 37.00373177 45.95992881 37.484375 47.78515625 C61.01042897 137.24225037 61.01042897 137.24225037 47.31640625 161.63671875 C42.27185678 169.19233284 36.05546029 171.68175655 27.55859375 174.26953125 C26.29789062 174.65882813 25.0371875 175.048125 23.73828125 175.44921875 C19.3605004 176.77812284 14.96379552 178.03491672 10.55859375 179.26953125 C9.79981934 179.48254883 9.04104492 179.69556641 8.25927734 179.91503906 C-3.08981705 183.07142362 -14.49087341 185.67960934 -26.07275391 187.82861328 C-27.56842845 188.10702889 -29.06306992 188.39110805 -30.55615234 188.68310547 C-50.46570926 192.57270497 -71.22356815 194.47935203 -91.50390625 194.64453125 C-92.41809326 194.65830811 -93.33228027 194.67208496 -94.27416992 194.6862793 C-102.77386314 194.625895 -108.32060719 192.00630378 -114.578125 186.22265625 C-119.83550703 180.71177362 -122.0351551 175.85288596 -122.44140625 168.26953125 C-123.10140625 168.26953125 -123.76140625 168.26953125 -124.44140625 168.26953125 C-124.49296875 168.88699219 -124.54453125 169.50445312 -124.59765625 170.140625 C-125.59768741 177.60676673 -128.48521803 182.59551484 -134.44140625 187.26953125 C-140.01378991 190.40756997 -145.13080063 191.96228073 -151.56640625 191.83203125 C-152.38641113 191.82179932 -153.20641602 191.81156738 -154.05126953 191.80102539 C-180.50112779 190.98128878 -206.93819561 186.06734589 -232.44140625 179.26953125 C-234.01631836 178.85670898 -234.01631836 178.85670898 -235.62304688 178.43554688 C-238.52596238 177.66849371 -241.42259823 176.88270493 -244.31640625 176.08203125 C-245.13641113 175.85652588 -245.95641602 175.63102051 -246.80126953 175.39868164 C-255.57987381 172.85526998 -262.07393074 169.82747184 -267.44140625 162.26953125 C-268.06015625 161.40328125 -268.67890625 160.53703125 -269.31640625 159.64453125 C-279.12247713 130.22631861 -263.8510892 80.61383926 -254.75390625 51.64453125 C-254.48094727 50.76933838 -254.20798828 49.89414551 -253.92675781 48.99243164 C-251.847174 42.70037362 -249.17130914 37.36349118 -244.00390625 33.01953125 C-243.44832031 32.54 -242.89273438 32.06046875 -242.3203125 31.56640625 C-231.61278919 24.17576646 -212.56232546 28.64124529 -200.25390625 29.89453125 C-199.39054657 29.9805661 -198.52718689 30.06660095 -197.63766479 30.15524292 C-178.61315156 32.08053145 -159.53323482 34.85844163 -141.44140625 41.26953125 C-141.40015625 40.60953125 -141.35890625 39.94953125 -141.31640625 39.26953125 C-139.21110672 32.05136145 -133.78809713 26.98649884 -127.44140625 23.26953125 C-124.58474202 22.03850525 -121.6764193 21.13627817 -118.69140625 20.26953125 C-117.86286133 20.01953369 -117.03431641 19.76953613 -116.18066406 19.51196289 C-113.60617302 18.74472563 -111.02592096 18.00223919 -108.44140625 17.26953125 C-107.66152344 17.04765137 -106.88164062 16.82577148 -106.078125 16.59716797 C-73.34116239 7.40209691 -39.53097482 1.61941309 -5.53173828 0.36181641 C-3.68568368 0.28031575 -1.84221134 0.14428216 0 0 Z " fill="#F5BA43" transform="translate(348.44140625,87.73046875)"/>
<path d="M0 0 C8.93074874 -0.50068083 15.70923922 2.43267931 22.69140625 7.95703125 C31.39126131 16.69454802 33.34266001 30.66901907 36.08349609 42.29882812 C36.52585022 44.13371121 37.00373177 45.95992881 37.484375 47.78515625 C61.01042897 137.24225037 61.01042897 137.24225037 47.31640625 161.63671875 C42.27185678 169.19233284 36.05546029 171.68175655 27.55859375 174.26953125 C26.29789062 174.65882813 25.0371875 175.048125 23.73828125 175.44921875 C19.3605004 176.77812284 14.96379552 178.03491672 10.55859375 179.26953125 C9.79981934 179.48254883 9.04104492 179.69556641 8.25927734 179.91503906 C-3.08981705 183.07142362 -14.49087341 185.67960934 -26.07275391 187.82861328 C-27.56842845 188.10702889 -29.06306992 188.39110805 -30.55615234 188.68310547 C-50.46570926 192.57270497 -71.22356815 194.47935203 -91.50390625 194.64453125 C-92.41809326 194.65830811 -93.33228027 194.67208496 -94.27416992 194.6862793 C-102.77386314 194.625895 -108.32060719 192.00630378 -114.578125 186.22265625 C-119.83550703 180.71177362 -122.0351551 175.85288596 -122.44140625 168.26953125 C-123.10140625 168.26953125 -123.76140625 168.26953125 -124.44140625 168.26953125 C-124.49296875 168.88699219 -124.54453125 169.50445312 -124.59765625 170.140625 C-125.59768741 177.60676673 -128.48521803 182.59551484 -134.44140625 187.26953125 C-140.01378991 190.40756997 -145.13080063 191.96228073 -151.56640625 191.83203125 C-152.38641113 191.82179932 -153.20641602 191.81156738 -154.05126953 191.80102539 C-180.50112779 190.98128878 -206.93819561 186.06734589 -232.44140625 179.26953125 C-234.01631836 178.85670898 -234.01631836 178.85670898 -235.62304688 178.43554688 C-238.52596238 177.66849371 -241.42259823 176.88270493 -244.31640625 176.08203125 C-245.13641113 175.85652588 -245.95641602 175.63102051 -246.80126953 175.39868164 C-255.57987381 172.85526998 -262.07393074 169.82747184 -267.44140625 162.26953125 C-268.06015625 161.40328125 -268.67890625 160.53703125 -269.31640625 159.64453125 C-279.12247713 130.22631861 -263.8510892 80.61383926 -254.75390625 51.64453125 C-254.48094727 50.76933838 -254.20798828 49.89414551 -253.92675781 48.99243164 C-251.847174 42.70037362 -249.17130914 37.36349118 -244.00390625 33.01953125 C-243.44832031 32.54 -242.89273438 32.06046875 -242.3203125 31.56640625 C-231.61278919 24.17576646 -212.56232546 28.64124529 -200.25390625 29.89453125 C-199.39054657 29.9805661 -198.52718689 30.06660095 -197.63766479 30.15524292 C-178.61315156 32.08053145 -159.53323482 34.85844163 -141.44140625 41.26953125 C-141.40015625 40.60953125 -141.35890625 39.94953125 -141.31640625 39.26953125 C-139.21110672 32.05136145 -133.78809713 26.98649884 -127.44140625 23.26953125 C-124.58474202 22.03850525 -121.6764193 21.13627817 -118.69140625 20.26953125 C-117.86286133 20.01953369 -117.03431641 19.76953613 -116.18066406 19.51196289 C-113.60617302 18.74472563 -111.02592096 18.00223919 -108.44140625 17.26953125 C-107.66152344 17.04765137 -106.88164062 16.82577148 -106.078125 16.59716797 C-73.34116239 7.40209691 -39.53097482 1.61941309 -5.53173828 0.36181641 C-3.68568368 0.28031575 -1.84221134 0.14428216 0 0 Z M-48.44140625 11.26953125 C-49.72023682 11.45056396 -49.72023682 11.45056396 -51.02490234 11.63525391 C-68.08592492 14.12062746 -84.77262012 17.88922628 -101.44140625 22.26953125 C-102.56224609 22.56263184 -103.68308594 22.85573242 -104.83789062 23.15771484 C-107.98620468 23.99735913 -111.12105205 24.87410121 -114.25390625 25.76953125 C-115.17179932 26.01743408 -116.08969238 26.26533691 -117.03540039 26.52075195 C-124.49318219 28.74700748 -129.81589485 32.62769285 -134.37890625 38.95703125 C-147.24544732 66.96067946 -129.29131795 127.42663221 -120.11572266 156.11914062 C-119.32131505 158.6525013 -118.59367278 161.20249546 -117.859375 163.75390625 C-117.28500718 165.65569112 -116.70821561 167.55674581 -116.12890625 169.45703125 C-115.88140625 170.33157959 -115.63390625 171.20612793 -115.37890625 172.10717773 C-113.31825455 178.58629387 -110.14658782 182.53147145 -104.44140625 186.26953125 C-94.91693364 190.89485266 -82.35495958 187.96932407 -72.19140625 186.95703125 C-71.48910889 186.88784485 -70.78681152 186.81865845 -70.06323242 186.74737549 C-66.49124407 186.39447078 -62.92009756 186.03426878 -59.34960938 185.66650391 C-56.04302291 185.33063999 -52.73556302 185.02072494 -49.42578125 184.71875 C-36.45705184 183.42566003 -23.83281001 180.78863487 -11.12890625 177.95703125 C-10.29294922 177.77243347 -9.45699219 177.58783569 -8.59570312 177.39764404 C0.61971647 175.34687785 9.71287732 173.04200039 18.7265625 170.2265625 C19.48133377 169.99216965 20.23610504 169.75777679 21.01374817 169.51628113 C30.75737567 166.38135023 38.05400798 163.50291611 43.62255859 154.56103516 C53.69951261 129.8916845 38.55347184 80.48009252 32.55859375 55.26953125 C32.25719482 53.97184814 32.25719482 53.97184814 31.94970703 52.64794922 C29.80619535 43.44691239 27.41602542 34.33897266 24.55859375 25.33203125 C24.33373291 24.59235107 24.10887207 23.8526709 23.87719727 23.09057617 C21.50144829 15.90312019 16.96996544 12.17210532 10.55859375 8.26953125 C-6.20975222 2.68008259 -31.10111764 8.80936152 -48.44140625 11.26953125 Z " fill="#F5BA44" transform="translate(348.44140625,87.73046875)"/>
<path d="M0 0 C1.35400288 1.16387724 2.68832772 2.35111655 4 3.5625 C4.67160156 4.14386719 5.34320312 4.72523438 6.03515625 5.32421875 C18.16214508 16.46983276 25.46479078 33.07843378 26.16796875 49.48046875 C26.29460575 61.03542137 25.10431903 70.97464106 21.125 81.875 C20.88056152 82.54539307 20.63612305 83.21578613 20.38427734 83.90649414 C18.72672085 88.22271095 16.69298087 91.80281892 14 95.5625 C9.9484609 94.01465529 7.74128697 91.14023466 5.0546875 87.8984375 C3.52656774 86.16818867 1.98600861 84.44952131 0.4453125 82.73046875 C-0.58645471 81.55240619 -1.59509151 80.35360019 -2.57714844 79.13378906 C-6.47150822 74.33486495 -9.54493446 72.30574755 -15 68.5625 C-23.58 68.5625 -32.16 68.5625 -41 68.5625 C-27.8 81.7625 -14.6 94.9625 -1 108.5625 C-4.16973829 114.90197658 -10.59991576 117.0932879 -17 119.5625 C-29.52627192 123.34551348 -44.35905597 124.62151872 -57 120.5625 C-57.85722656 120.30597656 -58.71445313 120.04945313 -59.59765625 119.78515625 C-77.0205081 114.07555782 -89.664459 101.7015262 -98 85.5625 C-99.61829884 81.95393513 -100.90794236 78.36171106 -102 74.5625 C-102.22429687 73.82386719 -102.44859375 73.08523437 -102.6796875 72.32421875 C-107.05439104 54.97522321 -104.04097047 35.83319398 -95.6328125 20.2421875 C-93.07650251 16.04690364 -90.23558635 12.25521114 -87 8.5625 C-86.46761719 7.94761719 -85.93523437 7.33273438 -85.38671875 6.69921875 C-63.6572463 -16.68978381 -25.18425331 -18.99711842 0 0 Z " fill="#F5BA43" transform="translate(1186,123.4375)"/>
<path d="M0 0 C1.41345703 0.63615234 1.41345703 0.63615234 2.85546875 1.28515625 C9.90788299 4.77731723 15.45055966 9.46959719 21 15 C21.63808594 15.61488281 22.27617188 16.22976562 22.93359375 16.86328125 C34.95421316 29.36579632 39.67144501 47.37339586 39.54321289 64.29516602 C39.05042692 77.71814389 35.3771364 90.71881204 28 102 C24 102 24 102 21.57177734 99.61328125 C20.65377052 98.5180721 19.74226356 97.41739487 18.8359375 96.3125 C17.78632021 95.12426496 16.73278538 93.93948134 15.67578125 92.7578125 C14.02710597 90.90177806 12.40826294 89.04126181 10.85009766 87.10839844 C6.82214541 82.15669902 3.56144424 79.91181779 -2 76 C-10.58 76 -19.16 76 -28 76 C-14.8 89.2 -1.6 102.4 12 116 C8.77950494 122.44099013 2.69841553 124.42803941 -3.97021484 126.65917969 C-22.71744584 132.29993946 -40.40131318 131.09218998 -57.9375 122.25 C-73.23472905 113.16437305 -84.71862973 98.14738068 -89.171875 80.89453125 C-90.42496422 74.72815135 -90.36827292 68.51963667 -90.375 62.25 C-90.39949219 61.0640625 -90.42398437 59.878125 -90.44921875 58.65625 C-90.50758911 40.83383355 -83.25041991 25.2364272 -70.82421875 12.66015625 C-52.7424657 -4.3712045 -23.04762669 -10.96042691 0 0 Z " fill="#F5BA43" transform="translate(564,116)"/>
<path d="M0 0 C1.77987305 0.01848999 1.77987305 0.01848999 3.59570312 0.03735352 C29.04967496 0.52217452 49.86555133 9.75794311 67.5625 28.125 C78.35965924 40.77540299 84.52229955 55.17482193 87.75 71.375 C87.93949219 72.29152344 88.12898437 73.20804687 88.32421875 74.15234375 C88.89989217 78.50950493 88.89467078 82.79763772 88.875 87.1875 C88.87886719 88.03892578 88.88273438 88.89035156 88.88671875 89.76757812 C88.87232587 99.21650346 87.75552916 107.52013658 84.75 116.5 C84.44892334 117.40999756 84.14784668 118.31999512 83.83764648 119.25756836 C81.50795211 125.95242385 78.53402483 131.86941012 74.59570312 137.75634766 C72.39684696 141.05558793 71.75 142.25275906 71.75 146.375 C73.58469366 148.54656713 75.39463812 150.4605336 77.4375 152.41796875 C78.01459717 152.98703445 78.59169434 153.55610016 79.1862793 154.14241028 C81.0316575 155.95877123 82.89014507 157.76097557 84.75 159.5625 C86.60719083 161.37726404 88.46158056 163.19480674 90.3137207 165.01472473 C91.46759798 166.14680472 92.6249252 167.27538041 93.78588867 168.40019226 C95.12564952 169.70652908 96.44064525 171.03818844 97.75 172.375 C97.75 172.705 97.75 173.035 97.75 173.375 C73.02860082 175.80915638 73.02860082 175.80915638 65.83984375 170.2578125 C62.35081488 166.95318055 59.47537289 163.32452374 56.75 159.375 C53.29062736 160.66008385 50.34098593 162.18153482 47.25 164.1875 C33.15233243 172.7632325 18.06355138 175.89830501 1.75 175.75 C0.47382812 175.76160156 -0.80234375 175.77320313 -2.1171875 175.78515625 C-13.26091768 175.75097303 -23.17426465 173.73592587 -33.3125 169.125 C-33.98804932 168.82198975 -34.66359863 168.51897949 -35.35961914 168.20678711 C-58.03162581 157.77739462 -72.27914383 139.77613638 -81.2421875 116.8984375 C-88.12154069 92.8473655 -86.3237724 65.92073385 -74.30859375 43.95703125 C-62.13971095 22.53104535 -43.38723302 8.33326006 -19.6484375 1.734375 C-13.06263045 0.14702663 -6.75126942 -0.08559991 0 0 Z M-49.3515625 44.8515625 C-59.07741597 58.00502952 -62.60497903 71.12193191 -62.5625 87.1875 C-62.57861328 88.39470703 -62.59472656 89.60191406 -62.61132812 90.84570312 C-62.62061152 108.0107018 -56.36677194 123.96230327 -44.46557617 136.41186523 C-40.13348937 140.71255469 -35.47510668 144.24170123 -30.25 147.375 C-29.63125 147.76042969 -29.0125 148.14585937 -28.375 148.54296875 C-12.91444869 157.23952886 5.07281609 157.19868215 21.73828125 152.6484375 C27.37182151 150.95338999 32.9195346 148.77075775 37.75 145.375 C38.74 143.395 38.74 143.395 39.75 141.375 C26.55 128.175 13.35 114.975 -0.25 101.375 C25.75 101.375 25.75 101.375 34.1953125 107.28125 C36.52145716 109.77921217 38.70460581 112.25607504 40.875 114.875 C42.05077766 116.18167224 43.23307024 117.48251222 44.421875 118.77734375 C47.27716008 121.914701 50.03398305 125.11654997 52.75 128.375 C56.88060139 126.99813287 57.24233304 125.15517949 59.1875 121.3125 C67.63790335 103.95624223 69.84097491 84.48549087 64.0703125 65.90234375 C60.01577782 55.07025849 55.05444631 46.45424099 46.75 38.375 C45.70199219 37.29605469 45.70199219 37.29605469 44.6328125 36.1953125 C32.8744778 24.78154438 17.29793832 20.83932045 1.375 20.9375 C0.23289062 20.91751953 -0.90921875 20.89753906 -2.0859375 20.87695312 C-21.30094656 20.88787074 -37.15560509 30.47937477 -49.3515625 44.8515625 Z " fill="#FEFDFB" transform="translate(536.25,90.625)"/>
<path d="M0 0 C1.24201172 -0.01611328 2.48402344 -0.03222656 3.76367188 -0.04882812 C26.93966791 -0.06098124 48.28795669 10.22228476 64.6875 26.3125 C75.40048269 37.56902792 82.47104171 52.17338055 85.6875 67.3125 C85.88988281 68.05757813 86.09226562 68.80265625 86.30078125 69.5703125 C91.94322673 92.2168624 85.27751991 116.717034 74.3359375 136.5703125 C72.90603938 138.94895819 71.40537002 141.13653131 69.6875 143.3125 C71.28481198 147.31228269 74.09740726 149.94529482 77.1328125 152.8828125 C77.66268768 153.40511444 78.19256287 153.92741638 78.73849487 154.46554565 C80.42508962 156.12777313 82.11796594 157.78336925 83.8125 159.4375 C86.04994099 161.62192405 88.28080926 163.81275407 90.5078125 166.0078125 C91.02650909 166.50991241 91.54520569 167.01201233 92.07962036 167.52932739 C93.32042464 168.75283933 94.50943369 170.02846866 95.6875 171.3125 C95.6875 171.9725 95.6875 172.6325 95.6875 173.3125 C73.79485086 175.5595461 73.79485086 175.5595461 67.14648438 171.92236328 C63.65303268 169.07505814 60.95245296 165.84586437 58.2265625 162.27734375 C56.96972656 160.80974609 56.96972656 160.80974609 55.6875 159.3125 C52.35558864 159.70675677 50.04339182 161.20525753 47.25 163 C43.3727576 165.36500416 39.46347213 167.52011035 35.375 169.5 C34.40949219 169.96792969 33.44398437 170.43585938 32.44921875 170.91796875 C22.71991542 174.86273849 12.71057516 175.81694283 2.3125 175.6875 C1.13292725 175.67807373 -0.04664551 175.66864746 -1.26196289 175.65893555 C-23.47154963 175.27519449 -44.58159744 167.65060042 -60.72265625 152.0546875 C-79.08522465 132.61196802 -87.27921945 108.66202347 -86.62890625 81.9765625 C-85.47198646 58.94466135 -74.57708309 36.84857884 -57.94140625 21.0625 C-41.14997048 6.94556221 -21.78321219 -0.05599797 0 0 Z M-48.3125 42.3125 C-50.93773667 45.50443905 -53.1997751 48.762895 -55.3125 52.3125 C-55.77140625 53.06660156 -56.2303125 53.82070312 -56.703125 54.59765625 C-64.79559601 69.19822894 -66.84532288 87.48057619 -63.125 103.6875 C-62.5567717 105.57370226 -61.95166127 107.44913873 -61.3125 109.3125 C-60.9721875 110.37855469 -60.631875 111.44460937 -60.28125 112.54296875 C-54.37887196 129.55218655 -42.18649521 142.13498731 -26.3125 150.3125 C-10.42746778 156.84007856 8.46099302 157.80121888 24.66943359 151.54785156 C33.13169762 148.1357098 33.13169762 148.1357098 38.6875 141.3125 C25.4875 128.1125 12.2875 114.9125 -1.3125 101.3125 C24.6875 101.3125 24.6875 101.3125 33.1328125 107.21875 C35.45895716 109.71671217 37.64210581 112.19357504 39.8125 114.8125 C40.98827766 116.11917224 42.17057024 117.42001222 43.359375 118.71484375 C46.21466008 121.852201 48.97148305 125.05404997 51.6875 128.3125 C54.83570276 127.61333358 54.83570276 127.61333358 56.15234375 125.01171875 C66.15641343 104.5524675 69.05561453 84.07467108 61.6875 62.3125 C58.49758883 54.42505393 54.28421904 47.70019003 48.6875 41.3125 C48.11644531 40.63574219 47.54539062 39.95898438 46.95703125 39.26171875 C36.38003516 27.64732006 20.13356886 20.95157927 4.64453125 20.15625 C-16.37296653 19.59640544 -34.18318719 26.86531551 -48.3125 42.3125 Z " fill="#FEFDFB" transform="translate(1146.3125,90.6875)"/>
<path d="M0 0 C8.93074874 -0.50068083 15.70923922 2.43267931 22.69140625 7.95703125 C31.39126131 16.69454802 33.34266001 30.66901907 36.08349609 42.29882812 C36.52585022 44.13371121 37.00373177 45.95992881 37.484375 47.78515625 C61.01042897 137.24225037 61.01042897 137.24225037 47.31640625 161.63671875 C42.27185678 169.19233284 36.05546029 171.68175655 27.55859375 174.26953125 C26.29789062 174.65882813 25.0371875 175.048125 23.73828125 175.44921875 C19.3605004 176.77812284 14.96379552 178.03491672 10.55859375 179.26953125 C9.79981934 179.48254883 9.04104492 179.69556641 8.25927734 179.91503906 C-3.08981705 183.07142362 -14.49087341 185.67960934 -26.07275391 187.82861328 C-27.56842845 188.10702889 -29.06306992 188.39110805 -30.55615234 188.68310547 C-50.46570926 192.57270497 -71.22356815 194.47935203 -91.50390625 194.64453125 C-92.41809326 194.65830811 -93.33228027 194.67208496 -94.27416992 194.6862793 C-102.77386314 194.625895 -108.32060719 192.00630378 -114.578125 186.22265625 C-119.83550703 180.71177362 -122.0351551 175.85288596 -122.44140625 168.26953125 C-123.10140625 168.26953125 -123.76140625 168.26953125 -124.44140625 168.26953125 C-124.49296875 168.88699219 -124.54453125 169.50445312 -124.59765625 170.140625 C-125.59768741 177.60676673 -128.48521803 182.59551484 -134.44140625 187.26953125 C-140.01378991 190.40756997 -145.13080063 191.96228073 -151.56640625 191.83203125 C-152.38641113 191.82179932 -153.20641602 191.81156738 -154.05126953 191.80102539 C-180.50112779 190.98128878 -206.93819561 186.06734589 -232.44140625 179.26953125 C-234.01631836 178.85670898 -234.01631836 178.85670898 -235.62304688 178.43554688 C-238.52596238 177.66849371 -241.42259823 176.88270493 -244.31640625 176.08203125 C-245.13641113 175.85652588 -245.95641602 175.63102051 -246.80126953 175.39868164 C-255.57987381 172.85526998 -262.07393074 169.82747184 -267.44140625 162.26953125 C-268.06015625 161.40328125 -268.67890625 160.53703125 -269.31640625 159.64453125 C-279.12247713 130.22631861 -263.8510892 80.61383926 -254.75390625 51.64453125 C-254.48094727 50.76933838 -254.20798828 49.89414551 -253.92675781 48.99243164 C-251.847174 42.70037362 -249.17130914 37.36349118 -244.00390625 33.01953125 C-243.44832031 32.54 -242.89273438 32.06046875 -242.3203125 31.56640625 C-231.61278919 24.17576646 -212.56232546 28.64124529 -200.25390625 29.89453125 C-199.39054657 29.9805661 -198.52718689 30.06660095 -197.63766479 30.15524292 C-178.61315156 32.08053145 -159.53323482 34.85844163 -141.44140625 41.26953125 C-141.40015625 40.60953125 -141.35890625 39.94953125 -141.31640625 39.26953125 C-139.21110672 32.05136145 -133.78809713 26.98649884 -127.44140625 23.26953125 C-124.58474202 22.03850525 -121.6764193 21.13627817 -118.69140625 20.26953125 C-117.86286133 20.01953369 -117.03431641 19.76953613 -116.18066406 19.51196289 C-113.60617302 18.74472563 -111.02592096 18.00223919 -108.44140625 17.26953125 C-107.66152344 17.04765137 -106.88164062 16.82577148 -106.078125 16.59716797 C-73.34116239 7.40209691 -39.53097482 1.61941309 -5.53173828 0.36181641 C-3.68568368 0.28031575 -1.84221134 0.14428216 0 0 Z M-48.44140625 11.26953125 C-49.72023682 11.45056396 -49.72023682 11.45056396 -51.02490234 11.63525391 C-68.08592492 14.12062746 -84.77262012 17.88922628 -101.44140625 22.26953125 C-102.56224609 22.56263184 -103.68308594 22.85573242 -104.83789062 23.15771484 C-107.98620468 23.99735913 -111.12105205 24.87410121 -114.25390625 25.76953125 C-115.17179932 26.01743408 -116.08969238 26.26533691 -117.03540039 26.52075195 C-124.49318219 28.74700748 -129.81589485 32.62769285 -134.37890625 38.95703125 C-147.24544732 66.96067946 -129.29131795 127.42663221 -120.11572266 156.11914062 C-119.32131505 158.6525013 -118.59367278 161.20249546 -117.859375 163.75390625 C-117.28500718 165.65569112 -116.70821561 167.55674581 -116.12890625 169.45703125 C-115.88140625 170.33157959 -115.63390625 171.20612793 -115.37890625 172.10717773 C-113.31825455 178.58629387 -110.14658782 182.53147145 -104.44140625 186.26953125 C-94.91693364 190.89485266 -82.35495958 187.96932407 -72.19140625 186.95703125 C-71.48910889 186.88784485 -70.78681152 186.81865845 -70.06323242 186.74737549 C-66.49124407 186.39447078 -62.92009756 186.03426878 -59.34960938 185.66650391 C-56.04302291 185.33063999 -52.73556302 185.02072494 -49.42578125 184.71875 C-36.45705184 183.42566003 -23.83281001 180.78863487 -11.12890625 177.95703125 C-10.29294922 177.77243347 -9.45699219 177.58783569 -8.59570312 177.39764404 C0.61971647 175.34687785 9.71287732 173.04200039 18.7265625 170.2265625 C19.48133377 169.99216965 20.23610504 169.75777679 21.01374817 169.51628113 C30.75737567 166.38135023 38.05400798 163.50291611 43.62255859 154.56103516 C53.69951261 129.8916845 38.55347184 80.48009252 32.55859375 55.26953125 C32.25719482 53.97184814 32.25719482 53.97184814 31.94970703 52.64794922 C29.80619535 43.44691239 27.41602542 34.33897266 24.55859375 25.33203125 C24.33373291 24.59235107 24.10887207 23.8526709 23.87719727 23.09057617 C21.50144829 15.90312019 16.96996544 12.17210532 10.55859375 8.26953125 C-6.20975222 2.68008259 -31.10111764 8.80936152 -48.44140625 11.26953125 Z M-243.44140625 41.26953125 C-245.24976672 44.48361217 -246.37450294 47.74773303 -247.44140625 51.26953125 C-247.72467773 52.14270996 -248.00794922 53.01588867 -248.29980469 53.91552734 C-256.70520576 80.62891255 -261.5220964 108.36218057 -263.44140625 136.26953125 C-263.51149902 137.28305664 -263.5815918 138.29658203 -263.65380859 139.34082031 C-263.81868006 142.088678 -263.92732115 144.83043799 -264.00390625 147.58203125 C-264.04306152 148.35764404 -264.0822168 149.13325684 -264.12255859 149.93237305 C-264.14636936 155.04205094 -262.85826554 158.54623192 -259.55908203 162.4777832 C-251.9137393 168.94644476 -240.23424164 170.58192782 -230.66772461 172.89990234 C-228.63854771 173.39219218 -226.61316144 173.89815617 -224.58789062 174.40625 C-205.04103355 179.25687899 -184.59513878 183.4355837 -164.44140625 184.26953125 C-163.19858887 184.33430664 -163.19858887 184.33430664 -161.93066406 184.40039062 C-159.01777136 184.53933953 -156.10649584 184.62777261 -153.19140625 184.70703125 C-152.25570801 184.7536792 -151.32000977 184.80032715 -150.35595703 184.84838867 C-144.3291037 184.94120028 -140.64260446 183.96052819 -136.02734375 179.99194336 C-133.7191224 177.48509274 -132.62636993 175.05447559 -131.56640625 171.83203125 C-131.18484375 170.6925 -130.80328125 169.55296875 -130.41015625 168.37890625 C-130.09046875 167.3528125 -129.77078125 166.32671875 -129.44140625 165.26953125 C-128.98765625 164.05265625 -128.53390625 162.83578125 -128.06640625 161.58203125 C-126.42581801 152.88691359 -129.31120351 144.31041413 -131.33984375 135.87890625 C-138.18616043 107.31861496 -142.11597971 77.64667273 -142.44140625 48.26953125 C-148.9538394 45.59115647 -155.41910583 44.07185287 -162.31640625 42.70703125 C-163.34121094 42.49884766 -164.36601562 42.29066406 -165.421875 42.07617188 C-167.45975721 41.66315763 -169.4984113 41.25393259 -171.5378418 40.84863281 C-173.37401562 40.48241703 -175.20900142 40.11014699 -177.04223633 39.72949219 C-192.18855949 36.60185345 -207.47940525 34.97998344 -222.94140625 34.70703125 C-224.06796631 34.66819824 -225.19452637 34.62936523 -226.35522461 34.58935547 C-233.58329052 34.56432038 -238.69302539 35.50166648 -243.44140625 41.26953125 Z " fill="#FEFAF3" transform="translate(348.44140625,87.73046875)"/>
<path d="M0 0 C6.6 0 13.2 0 20 0 C20.33 38.28 20.66 76.56 21 116 C25.86251613 111.74529839 30.51628404 107.59948373 35 103 C38.85591602 99.09099047 42.72968036 95.32061947 47.0078125 91.8671875 C49.16387067 89.96786452 49.16387067 89.96786452 51.0546875 87.1328125 C54.60256329 82.5612873 57.15180306 79.47501491 62.93945312 78.50976562 C70.30761912 78.03816839 77.64879015 78.39480541 85 79 C78.87591489 86.33401458 78.87591489 86.33401458 75.375 89.1875 C71.72420777 92.28577769 68.35919739 95.59416165 65 99 C61.17885231 102.86907475 57.30232588 106.55225174 53.1484375 110.06640625 C49.61811909 113.24369282 46.32752808 116.66804207 43.03515625 120.08984375 C41.72624181 121.42951597 40.36678728 122.71942545 39 124 C38.34 124 37.68 124 37 124 C44.22545163 133.57289099 51.7619042 142.85941673 59.41796875 152.09033203 C62.96770142 156.37520996 66.48354651 160.68780995 70 165 C70.75627686 165.92643311 70.75627686 165.92643311 71.52783203 166.87158203 C90 189.5077139 90 189.5077139 90 191 C68.99522379 192.6178581 68.99522379 192.6178581 62.7890625 189.265625 C60.49127272 186.65178235 58.7792066 183.99042124 57 181 C55.26838614 178.68081258 53.44024032 176.44148325 51.625 174.1875 C50.68867217 172.98418582 49.75378089 171.77975249 48.8203125 170.57421875 C46.13415778 167.13902226 43.33764855 163.81042125 40.5 160.5 C33.70694878 152.56540328 27.26682655 144.35576873 21 136 C20.67 154.15 20.34 172.3 20 191 C13.4 191 6.8 191 0 191 C0 127.97 0 64.94 0 0 Z " fill="#FEFDFA" transform="translate(960,73)"/>
<path d="M0 0 C6.6 0 13.2 0 20 0 C20.0093457 2.31572021 20.01869141 4.63144043 20.02832031 7.01733398 C20.06218036 14.69288323 20.11777925 22.36816618 20.18390274 30.04350185 C20.22330881 34.6942982 20.25553085 39.34490715 20.27099609 43.99584961 C20.28620813 48.48945105 20.32073369 52.98253708 20.36830902 57.47590828 C20.38307612 59.18494229 20.39103832 60.89404991 20.39188385 62.60314751 C20.40214493 72.94981936 20.51468999 81.5704142 27.375 89.875 C34.50746304 95.64889865 41.12245603 95.87993277 50 95 C57.71122662 93.08250247 64.06777913 89.42051877 68.3125 82.5625 C70.96087154 76.97149341 71.13109613 71.74663393 71.20532227 65.61767578 C71.21522186 64.90478897 71.22512146 64.19190216 71.23532104 63.45741272 C71.26670405 61.12007882 71.29160085 58.78272466 71.31640625 56.4453125 C71.33699586 54.81720475 71.35799284 53.18910211 71.37937927 51.56100464 C71.43439277 47.2900406 71.48389283 43.01902999 71.53222656 38.74798584 C71.58259354 34.38403207 71.63820004 30.02014536 71.69335938 25.65625 C71.80068725 17.104222 71.90170321 8.55213657 72 0 C78.6 0 85.2 0 92 0 C92 36.96 92 73.92 92 112 C85.4 112 78.8 112 72 112 C71.505 104.575 71.505 104.575 71 97 C69.68 98.546875 68.36 100.09375 67 101.6875 C61.18141838 108.14548619 54.75186513 113.32279979 45.78979492 114.22167969 C43.25249586 114.34077065 40.72750036 114.37120612 38.1875 114.375 C36.91036133 114.41173828 36.91036133 114.41173828 35.60742188 114.44921875 C26.03282702 114.49297166 17.91423281 110.56340492 11 104 C3.55082449 95.03690429 -0.1693477 84.64704027 -0.11352539 73.11035156 C-0.11367142 72.31972824 -0.11381744 71.52910492 -0.1139679 70.71452332 C-0.11327236 68.10652911 -0.10549675 65.4986067 -0.09765625 62.890625 C-0.0957908 61.08030232 -0.09436749 59.26997913 -0.09336853 57.45965576 C-0.08955339 52.69869591 -0.07973165 47.93776663 -0.06866455 43.17681885 C-0.05842887 38.31710219 -0.05386629 33.45738058 -0.04882812 28.59765625 C-0.0381085 19.06508858 -0.0205198 9.53255162 0 0 Z " fill="#FEFDFA" transform="translate(653,152)"/>
<path d="M0 0 C6.27 0 12.54 0 19 0 C19.0093457 2.21436768 19.01869141 4.42873535 19.02832031 6.71020508 C19.06223057 14.06244399 19.11785668 21.41440636 19.18390274 28.76642323 C19.22325345 33.21986584 19.2555023 37.6731144 19.27099609 42.12670898 C19.28624504 46.43229693 19.32083449 50.73735092 19.36830902 55.04269981 C19.38303849 56.6775108 19.39103612 58.31239805 19.39188385 59.94727516 C19.40285615 70.50652356 19.78819832 80.65309167 26.3125 89.5 C32.46438314 95.22268199 38.14792385 95.60647194 46.3515625 95.4140625 C53.54940751 94.59717645 59.54832224 92.14521804 65 87.375 C71.03245341 77.19523487 71.60323495 67.47104153 71.609375 55.95703125 C71.624385 54.33605826 71.64111797 52.71510041 71.65948486 51.09416199 C71.70285484 46.86432119 71.72308937 42.63468656 71.73822021 38.40466309 C71.75790182 34.07368937 71.79985873 29.74293481 71.83984375 25.41210938 C71.91481654 16.94143724 71.96324291 8.47092424 72 0 C78.27 0 84.54 0 91 0 C91 36.96 91 73.92 91 112 C84.73 112 78.46 112 72 112 C71.67 106.72 71.34 101.44 71 96 C69.68 97.98 68.36 99.96 67 102 C60.19396681 109.44161606 53.36998883 113.74496961 43.234375 114.375 C41.46915713 114.431335 39.70340749 114.47282473 37.9375 114.5 C36.67909302 114.52803711 36.67909302 114.52803711 35.39526367 114.55664062 C25.95236244 114.46046378 17.83048731 110.45411352 11 104 C0.04562517 91.68191729 -0.58366422 77.63000759 -0.390625 62.01171875 C-0.38314688 60.21426529 -0.37746139 58.41680358 -0.37347412 56.61933899 C-0.35834127 51.93226854 -0.31916904 47.24570909 -0.2746582 42.55883789 C-0.233436 37.75869658 -0.21540607 32.95847115 -0.1953125 28.15820312 C-0.15266012 18.77187698 -0.08241451 9.3860613 0 0 Z " fill="#FEFEFD" transform="translate(1262,152)"/>
<path d="M0 0 C32.01 0 64.02 0 97 0 C95.50944054 2.98111892 94.18654964 5.25651944 92.234375 7.87890625 C91.68120605 8.62551514 91.12803711 9.37212402 90.55810547 10.14135742 C89.96143066 10.94033447 89.36475586 11.73931152 88.75 12.5625 C87.47645436 14.27856558 86.20301998 15.99471374 84.9296875 17.7109375 C84.27709961 18.5884668 83.62451172 19.46599609 82.95214844 20.37011719 C80.49831732 23.67585365 78.05982254 26.99270177 75.62207031 30.31030273 C70.78046559 36.8981598 65.91428616 43.46617734 61 50 C56.64379254 55.79566258 52.30963068 61.60710363 48 67.4375 C47.47921875 68.13939453 46.9584375 68.84128906 46.421875 69.56445312 C40.47978132 77.61945147 34.77675343 85.81626598 29 94 C50.12 94 71.24 94 93 94 C93 99.94 93 105.88 93 112 C60 112 27 112 -7 112 C-0.24716553 101.8707483 -0.24716553 101.8707483 2.2265625 98.52734375 C2.77699219 97.78162109 3.32742188 97.03589844 3.89453125 96.26757812 C4.46558594 95.49865234 5.03664063 94.72972656 5.625 93.9375 C6.23472656 93.11314453 6.84445312 92.28878906 7.47265625 91.43945312 C11.77826389 85.6255401 16.11522157 79.83546592 20.46386719 74.05371094 C26.70434544 65.74815683 32.84651578 57.37007082 39 49 C41.43665322 45.68687608 43.87436751 42.37453541 46.3125 39.0625 C46.85052246 38.3305542 47.38854492 37.5986084 47.94287109 36.84448242 C52.58932193 30.53233611 57.29657482 24.27123358 62 18 C41.54 18 21.08 18 0 18 C0 12.06 0 6.12 0 0 Z " fill="#FEFDFC" transform="translate(1446,152)"/>
<path d="M0 0 C0.87140625 0.2784375 1.7428125 0.556875 2.640625 0.84375 C8.80595611 3.0375488 14.7636122 5.89117126 19 11 C20.07997146 15.2055145 19.86152436 19.13103803 19.5625 23.4375 C19.5015918 25.1071582 19.5015918 25.1071582 19.43945312 26.81054688 C19.3338339 29.5449113 19.18636513 32.27014912 19 35 C18.24976563 34.2471875 17.49953125 33.494375 16.7265625 32.71875 C4.76916339 20.79561277 -6.03439097 16.67532794 -22.81616211 16.68969727 C-33.38838151 16.87570978 -40.02515754 20.04668479 -47.73046875 27.3515625 C-55.00755734 35.8435867 -57.20568436 44.74563592 -57.3125 55.5625 C-57.35600586 56.99045898 -57.35600586 56.99045898 -57.40039062 58.44726562 C-57.49337193 68.95415293 -54.00831305 76.75226288 -47.28125 84.734375 C-40.05640239 91.90973735 -31.47738252 95.28261129 -21.375 95.3125 C-9.0512566 95.21342316 3.35835657 92.5348646 12.4296875 83.609375 C13.83304809 82.02123027 15.20651317 80.40582248 16.5390625 78.7578125 C17.02117187 78.17773438 17.50328125 77.59765625 18 77 C18.33 77 18.66 77 19 77 C19.23331804 80.87397689 19.3747313 84.74614424 19.5 88.625 C19.56703125 89.71941406 19.6340625 90.81382812 19.703125 91.94140625 C19.89550904 99.87724789 19.89550904 99.87724789 17.39233398 103.015625 C15.33429644 104.60584885 13.32080795 105.83136621 11 107 C9.47052734 107.79664063 9.47052734 107.79664063 7.91015625 108.609375 C6.97042969 108.98578125 6.03070312 109.3621875 5.0625 109.75 C4.12535156 110.13671875 3.18820312 110.5234375 2.22265625 110.921875 C-11.3654897 115.46772746 -29.0858437 116.83021036 -42.51171875 111.25390625 C-43.33285156 110.84011719 -44.15398438 110.42632812 -45 110 C-46.27810547 109.36384766 -46.27810547 109.36384766 -47.58203125 108.71484375 C-58.39645644 102.75112848 -66.01788438 94.7199512 -72 84 C-72.61681641 82.948125 -72.61681641 82.948125 -73.24609375 81.875 C-77.73446195 73.72030906 -78.37152337 64.71533807 -78.3125 55.5625 C-78.30686035 54.64090088 -78.3012207 53.71930176 -78.29541016 52.76977539 C-78.17657643 46.11449847 -77.58776676 40.19495679 -75 34 C-74.5978125 33.0203125 -74.195625 32.040625 -73.78125 31.03125 C-66.57501201 15.17752642 -53.92923959 5.26363316 -38 -1 C-26.25187606 -5.29258375 -11.62809165 -3.89843535 0 0 Z " fill="#FEFDFA" transform="translate(912,152)"/>
<path d="M0 0 C0.80824219 0.32871094 1.61648438 0.65742188 2.44921875 0.99609375 C11.61877957 5.05429142 19.03787595 11.90361322 23.1875 21.125 C25.18978936 28.21002388 25.51065348 36.69946883 22.375 43.5 C21.2578125 45.30859375 21.2578125 45.30859375 20 47 C19.56429687 47.58910156 19.12859375 48.17820313 18.6796875 48.78515625 C15.44983172 52.80041412 11.72698918 56.08215413 7.734375 59.32421875 C4.72133312 62.23546867 3.82385194 64.95214669 3.5625 69.0625 C2.88439124 73.80926135 2.88439124 73.80926135 0 76 C-2.00537109 76.63183594 -2.00537109 76.63183594 -4.2734375 76.984375 C-5.0984375 77.11457031 -5.9234375 77.24476563 -6.7734375 77.37890625 C-7.63195312 77.50136719 -8.49046875 77.62382812 -9.375 77.75 C-10.22578125 77.88792969 -11.0765625 78.02585937 -11.953125 78.16796875 C-20.24503744 79.42079664 -20.24503744 79.42079664 -24 78 C-27.41751959 72.87372061 -26.61952255 66.97350167 -26 61 C-23.03937866 51.69125569 -14.66972487 45.1976344 -7.34765625 39.2265625 C-5.21507761 37.28560686 -5.00081102 36.00746141 -4.6875 33.125 C-4.71955113 29.92847522 -4.71955113 29.92847522 -6.8125 27.75 C-11.75646924 23.79482461 -14.84265581 23.34406299 -21 24 C-29.38150488 26.79383496 -33.73918171 34.74152637 -38 42 C-42.95998472 41.38367054 -46.93671966 39.20164371 -51.3125 36.9375 C-52.05306641 36.56044922 -52.79363281 36.18339844 -53.55664062 35.79492188 C-55.37387522 34.86871843 -57.18732404 33.93509371 -59 33 C-59.50663273 24.34924607 -54.67808294 17.7218887 -49.3125 11.25 C-36.6886581 -2.16734054 -17.26883928 -7.91354972 0 0 Z " fill="#FEFDFC" transform="translate(316,131)"/>
<path d="M0 0 C7.33092835 6.08116509 13.80390271 13.22138518 15.03125 22.984375 C15.31341767 31.49643312 13.4792727 37.91712743 7.6875 44.25 C4.8828125 45.9453125 4.8828125 45.9453125 1.8125 47.375 C0.80445313 47.85195312 -0.20359375 48.32890625 -1.2421875 48.8203125 C-2.25539062 49.29210937 -3.26859375 49.76390625 -4.3125 50.25 C-10.19275483 53.0130113 -12.73674176 55.88636264 -16.3125 61.25 C-23.64884481 61.95996885 -30.31275743 60.44310116 -37.3125 58.25 C-38.3125 57.25 -38.3125 57.25 -38.33203125 55.39453125 C-37.66111677 47.83724928 -35.16985966 43.63173806 -29.375 38.6875 C-24.62086208 35.10007038 -19.54606417 33.19494711 -13.9375 31.29296875 C-11.17669202 30.53345864 -11.17669202 30.53345864 -10.3125 28.25 C-9.81218794 24.83428147 -9.81218794 24.83428147 -10.3125 21.25 C-13.83852241 17.62867968 -16.86153905 16.48319015 -21.8125 15.6875 C-27.30006709 15.66717568 -30.76820462 19.23083886 -34.796875 22.59765625 C-37.3125 24.25 -37.3125 24.25 -39.27734375 24.328125 C-42.35947682 22.69536353 -44.68914047 20.3860298 -47.125 17.9375 C-47.63998047 17.45087891 -48.15496094 16.96425781 -48.68554688 16.46289062 C-50.14453125 15.01171875 -50.14453125 15.01171875 -52.3125 12.25 C-52.31851944 8.94532777 -50.69120369 7.17183677 -48.4375 4.875 C-34.94027247 -8.01249652 -15.61310244 -11.07440987 0 0 Z " fill="#FEFDFB" transform="translate(182.3125,155.75)"/>
<path d="M0 0 C6.27 0 12.54 0 19 0 C19 36.96 19 73.92 19 112 C12.73 112 6.46 112 0 112 C0 75.04 0 38.08 0 0 Z " fill="#FEFEFE" transform="translate(1394,152)"/>
<path d="M0 0 C6.27 0 12.54 0 19 0 C19 36.96 19 73.92 19 112 C12.73 112 6.46 112 0 112 C0 75.04 0 38.08 0 0 Z " fill="#FEFEFE" transform="translate(785,152)"/>
<path d="M0 0 C5.07923124 7.0118947 4.29214018 18.75515502 4 27 C-3.70098455 29.45031327 -12.92036991 32.05337757 -21 31 C-24.3925911 27.20960507 -24.94641286 22.4305463 -25.75 17.5625 C-25.88792969 16.82451172 -26.02585937 16.08652344 -26.16796875 15.32617188 C-26.92393544 10.94234445 -27.03197038 7.39981966 -26 3 C-6.53048946 -2.34457152 -6.53048946 -2.34457152 0 0 Z " fill="#FEFDFA" transform="translate(320,213)"/>
<path d="M0 0 C3.95664641 2.05779073 6.42868719 4.11551757 8.03515625 8.2734375 C8.56452767 13.03778031 8.55403509 15.23567982 6.41015625 19.5234375 C2.84455226 23.65203159 0.01789423 25.99018922 -5.46484375 26.7734375 C-10.47292582 26.0579972 -13.46560427 23.97946863 -16.77734375 20.2109375 C-19.20443576 16.25094527 -19.35079852 12.82770382 -18.96484375 8.2734375 C-14.9529314 0.54679149 -8.541397 -3.15844899 0 0 Z " fill="#FEFCF9" transform="translate(1408.96484375,92.7265625)"/>
<path d="M0 0 C5.15055847 1.78288562 7.56506082 4.13012164 10 9 C10.65293024 14.22344192 9.845108 17.58517724 7 22 C3.59132439 25.07612189 1.34769509 26.87041393 -3.25 27.3125 C-7.74455244 26.93795396 -9.57431545 25.89280029 -13 23 C-15.75374623 19.73898473 -16.89487343 17.73588601 -17.5 13.5 C-16.7483027 8.23811892 -14.33302389 5.40708077 -10.75 1.625 C-7.12609901 -0.51639604 -4.05722775 -0.64564921 0 0 Z " fill="#FEFCF9" transform="translate(798,92)"/>
<path d="M0 0 C7.10541768 0.40549725 14.24641949 1.7488065 21 4 C21.39109989 11.6916311 20.12516386 18.60046572 18 26 C17.67 26.33 17.34 26.66 17 27 C9.89141579 26.83228386 2.92067818 25.54626866 -4 24 C-4.25970853 16.54059376 -4.06441213 9.22544245 -2 2 C-1.34 1.34 -0.68 0.68 0 0 Z " fill="#FEFDF9" transform="translate(144,219)"/>
<path d="M0 0 C0.66 0.33 1.32 0.66 2 1 C-3.28 6.28 -8.56 11.56 -14 17 C-14 12.08113186 -10.31173311 9.3948461 -7 6 C-4.72300284 3.91201998 -2.39497582 1.9550823 0 0 Z " fill="#FDF4E2" transform="translate(1093,108)"/>
<path d="M0 0 C0.66 0.33 1.32 0.66 2 1 C-2.29 5.29 -6.58 9.58 -11 14 C-11 10.30159372 -10.17133056 9.68584567 -7.75 7 C-7.14671875 6.319375 -6.5434375 5.63875 -5.921875 4.9375 C-4.06233388 3.06284066 -2.15205789 1.52358081 0 0 Z " fill="#FCF2DE" transform="translate(275,135)"/>
<path d="M0 0 C0.66 0.33 1.32 0.66 2 1 C-1.63 4.63 -5.26 8.26 -9 12 C-9 7.8407692 -6.75316432 5.85455565 -4 3 C-1.6875 1.125 -1.6875 1.125 0 0 Z " fill="#FCF1DC" transform="translate(219,112)"/>
<path d="M0 0 C0.77734375 1.703125 0.77734375 1.703125 1 4 C-0.87109375 6.359375 -0.87109375 6.359375 -3.4375 8.75 C-4.70400391 9.94882812 -4.70400391 9.94882812 -5.99609375 11.171875 C-6.65738281 11.77515625 -7.31867187 12.3784375 -8 13 C-8.66 12.67 -9.32 12.34 -10 12 C-9.52949219 11.55269531 -9.05898438 11.10539062 -8.57421875 10.64453125 C-5.14923351 7.31882095 -2.21128342 4.29249134 0 0 Z " fill="#F6C768" transform="translate(724,247)"/>
<path d="M0 0 C0.66 0.33 1.32 0.66 2 1 C-0.64 3.64 -3.28 6.28 -6 9 C-6.33 8.34 -6.66 7.68 -7 7 C-4.78071806 4.09197539 -3.07030857 2.04687238 0 0 Z " fill="#F6C561" transform="translate(111,124)"/>
<path d="M0 0 C0.66 0.33 1.32 0.66 2 1 C-0.31 3.31 -2.62 5.62 -5 8 C-5.33 7.34 -5.66 6.68 -6 6 C-4 4 -2 2 0 0 Z " fill="#FCF1DA" transform="translate(1397,93)"/>
<path d="M0 0 C0.66 0 1.32 0 2 0 C2.33 1.65 2.66 3.3 3 5 C2.34 5 1.68 5 1 5 C-0.62514468 6.45833358 -0.62514468 6.45833358 -2 8 C-1.34 5.36 -0.68 2.72 0 0 Z " fill="#F7CD77" transform="translate(224,256)"/>
</svg>
