<?xml version="1.0" encoding="UTF-8"?>
<svg version="1.1" xmlns="http://www.w3.org/2000/svg" width="1542" height="304">
<path d="M0 0 C508.86 0 1017.72 0 1542 0 C1542 100.32 1542 200.64 1542 304 C1033.14 304 524.28 304 0 304 C0 203.68 0 103.36 0 0 Z " fill="#F5BA42" transform="translate(0,0)"/>
<path d="M0 0 C1.24201172 -0.01224609 2.48402344 -0.02449219 3.76367188 -0.03710938 C15.5063093 -0.05558232 25.88819616 1.34384774 36.75 5.875 C37.61560547 6.23166748 38.48121094 6.58833496 39.37304688 6.95581055 C60.46288422 15.87066384 76.53747413 32.20277034 85.6875 53.1875 C95.86144067 79.59361093 93.95016841 108.37143111 82.72265625 133.97265625 C81.0278934 137.6549512 79.04372036 140.89300845 76.6875 144.1875 C78.06810177 147.32792831 79.63378843 149.3321054 82.14453125 151.65625 C82.8391748 152.3044873 83.53381836 152.95272461 84.24951172 153.62060547 C84.99217285 154.30268066 85.73483398 154.98475586 86.5 155.6875 C87.63719482 156.74348389 87.63719482 156.74348389 88.79736328 157.82080078 C90.34551454 159.25704533 91.89597129 160.69080876 93.44873047 162.12207031 C95.50530989 164.01941621 97.55328417 165.92545777 99.59765625 167.8359375 C100.75232745 168.91175541 101.90725834 169.98729469 103.0625 171.0625 C103.59077393 171.55556641 104.11904785 172.04863281 104.66333008 172.55664062 C106.92937334 174.6516969 109.11125777 176.47000518 111.6875 178.1875 C111.6875 178.8475 111.6875 179.5075 111.6875 180.1875 C105.37057984 180.3144082 99.05398906 180.40189585 92.73608398 180.4621582 C90.58752151 180.48728285 88.43904435 180.52138861 86.29077148 180.56469727 C83.20014388 180.62543792 80.11064737 180.65373044 77.01953125 180.67578125 C76.06101761 180.70158768 75.10250397 180.7273941 74.11494446 180.75398254 C67.40521029 180.75679632 67.40521029 180.75679632 63.65917969 177.78540039 C63.00852539 176.92809326 62.35787109 176.07078613 61.6875 175.1875 C60.50344699 173.8926728 59.31636056 172.60060677 58.125 171.3125 C57.56683594 170.69632813 57.00867188 170.08015625 56.43359375 169.4453125 C55.85738281 169.03023437 55.28117188 168.61515625 54.6875 168.1875 C51.86446537 168.65818963 49.48210867 169.6656001 46.9296875 170.9296875 C46.22674561 171.27241699 45.52380371 171.61514648 44.79956055 171.96826172 C44.06133057 172.32936035 43.32310059 172.69045898 42.5625 173.0625 C36.38027992 176.01822105 30.4062318 178.69320012 23.6875 180.1875 C22.87539063 180.38988281 22.06328125 180.59226563 21.2265625 180.80078125 C-4.71879653 186.26491847 -33.02341368 181.4170049 -55.3125 167.1875 C-59.19152212 164.39655578 -62.78489886 161.40835322 -66.3125 158.1875 C-67.04082031 157.52878906 -67.76914062 156.87007812 -68.51953125 156.19140625 C-83.89916793 141.57634041 -93.22052204 120.13452822 -94.50317383 99.05371094 C-94.57873294 95.90828596 -94.58584826 92.77117798 -94.5625 89.625 C-94.57023437 88.57892578 -94.57796875 87.53285156 -94.5859375 86.45507812 C-94.56151737 76.61987243 -93.19339428 67.43298407 -89.625 58.25 C-89.36444824 57.57179199 -89.10389648 56.89358398 -88.83544922 56.19482422 C-79.7295555 33.27085822 -62.54138568 16.77030257 -40.125 6.875 C-26.56766274 1.34384688 -14.58773549 0.00750012 0 0 Z " fill="#FEFEFD" transform="translate(370.3125,60.8125)"/>
<path d="M0 0 C17.72227389 14.03077616 28.20510844 33.79347062 32.28125 55.8203125 C35.04101822 82.01051294 29.95722715 104.86686721 16.671875 127.52734375 C17.21972656 128.01460937 17.76757812 128.501875 18.33203125 129.00390625 C24.30883163 134.34901228 30.18842307 139.78864103 36.03759766 145.27270508 C40.89910949 149.82502823 45.82356862 154.30025232 50.79296875 158.734375 C51.41300781 159.32605469 52.03304688 159.91773438 52.671875 160.52734375 C52.671875 160.85734375 52.671875 161.18734375 52.671875 161.52734375 C46.46495371 161.80120668 40.26161279 161.99973691 34.05004883 162.1315918 C31.94200331 162.18659551 29.83437141 162.26143119 27.7277832 162.35717773 C9.17604346 163.1786732 9.17604346 163.1786732 3.90869141 159.06494141 C1.88568255 157.15270745 0.35938151 155.24301315 -1.34643555 153.00708008 C-3.08191123 150.45373589 -3.08191123 150.45373589 -5.38012695 149.58789062 C-8.9038855 149.47836661 -11.81646899 151.56585729 -14.828125 153.21484375 C-38.59183595 165.59905215 -66.3295338 167.04809879 -91.92578125 159.4609375 C-103.78919336 155.54949695 -113.74566673 149.45058259 -123.328125 141.52734375 C-123.90820312 141.09292969 -124.48828125 140.65851563 -125.0859375 140.2109375 C-140.48021212 128.21772355 -149.92727811 107.66000152 -152.92016602 88.83642578 C-156.11417856 62.92879799 -152.40941061 37.88744303 -136.828125 16.62109375 C-128.6241164 6.46863311 -119.6312716 -0.98787957 -108.328125 -7.47265625 C-107.37550781 -8.03726563 -106.42289063 -8.601875 -105.44140625 -9.18359375 C-73.50492292 -26.73306994 -28.59086046 -21.70879794 0 0 Z " fill="#FEFEFD" transform="translate(1119.328125,79.47265625)"/>
<path d="M0 0 C1.04885376 -0.00137466 2.09770752 -0.00274933 3.17834473 -0.00416565 C4.3234552 -0.00057037 5.46856567 0.0030249 6.64837646 0.00672913 C7.85840332 0.0065831 9.06843018 0.00643707 10.31512451 0.00628662 C13.62885602 0.0068637 16.94252515 0.01187725 20.25624561 0.01886058 C23.72091806 0.02511401 27.18559134 0.02569949 30.65026855 0.02688599 C37.20918049 0.02999343 43.76807576 0.03819892 50.32698035 0.04823548 C57.79488518 0.05941482 65.26279081 0.06491166 72.73070192 0.06993091 C88.09096507 0.08038201 103.45121159 0.09797011 118.8114624 0.12025452 C117.40969355 1.75012923 116.00746967 3.37961419 114.60332489 5.00744247 C113.41428026 6.4094629 112.24458082 7.82813504 111.09546661 9.26306534 C104.61580739 17.28322161 98.44539676 24.70270728 87.73035812 25.95522118 C82.69334949 26.20052421 77.70761939 26.08083798 72.6708374 25.89369202 C70.48755499 25.87675817 68.30419727 25.86784349 66.12084961 25.86650085 C60.42535028 25.84380494 54.73646973 25.7224412 49.04296875 25.57624817 C42.10177018 25.41476835 35.15905199 25.36117523 28.21634293 25.30248451 C22.82150995 25.25646852 17.42959855 25.19110426 12.03601074 25.06394958 C11.04823135 25.04598831 10.06045197 25.02802704 9.04273987 25.00952148 C7.20402685 24.97600787 5.36547044 24.93108894 3.52738953 24.87237549 C-1.22095042 24.80231537 -4.36142296 24.97102402 -8.1885376 28.12025452 C-10.39293593 31.42685201 -10.44072329 32.42448809 -10.44923401 36.26878357 C-10.45986122 37.86702721 -10.45986122 37.86702721 -10.47070312 39.49755859 C-10.46822571 40.66646133 -10.46574829 41.83536407 -10.4631958 43.03968811 C-10.46830673 44.27079819 -10.47341766 45.50190826 -10.47868347 46.77032471 C-10.4902152 50.14855503 -10.49265082 53.52654027 -10.49012017 56.90477324 C-10.48905099 59.72530921 -10.49393259 62.54582251 -10.49872559 65.36635363 C-10.50982516 72.0216425 -10.510256 78.67687493 -10.50421143 85.33216858 C-10.49817339 92.19580559 -10.51047715 99.05923751 -10.53178149 105.92283952 C-10.54940277 111.81678555 -10.55539794 117.71066634 -10.55214375 123.60463774 C-10.55033121 127.12428779 -10.55296377 130.64379163 -10.56685829 134.16341782 C-10.58177767 138.0897042 -10.57246184 142.01572995 -10.56085205 145.94203186 C-10.56849579 147.10688614 -10.57613953 148.27174042 -10.58401489 149.47189331 C-10.57349342 151.07859642 -10.57349342 151.07859642 -10.5627594 152.71775818 C-10.56301101 154.10981256 -10.56301101 154.10981256 -10.56326771 155.52998924 C-10.10161457 158.72109684 -9.12623235 160.55327558 -7.1885376 163.12025452 C-4.16956011 165.21965217 -1.62670467 165.37433574 1.99758911 165.38768005 C3.04618607 165.39621002 4.09478302 165.40473999 5.17515564 165.41352844 C6.32019058 165.41262207 7.46522552 165.4117157 8.6449585 165.41078186 C9.85510117 165.41749908 11.06524384 165.42421631 12.3120575 165.43113708 C15.62831021 165.44688085 18.94431248 165.45349215 22.26058531 165.45476866 C24.33376479 165.45619124 26.40691811 165.46046285 28.48009109 165.46576309 C35.71654169 165.48426119 42.95291864 165.492434 50.18939209 165.49085999 C56.92868368 165.48965869 63.66765494 165.51075885 70.40686548 165.54234731 C76.19809006 165.56852237 81.98921011 165.57922677 87.78049338 165.57794917 C91.2370611 165.57743988 94.6933441 165.58310413 98.14985275 165.60430527 C102.00642088 165.62731486 105.86255169 165.61815917 109.71917725 165.60609436 C110.86016373 165.61733337 112.00115021 165.62857239 113.17671204 165.64015198 C119.32300432 165.5912435 123.23285983 165.40975669 127.8114624 161.12025452 C129.91208383 158.14400946 130.00981017 155.91503279 129.78118896 152.33363342 C129.73093567 151.38325699 129.68068237 150.43288055 129.62890625 149.45370483 C129.57055603 148.42843185 129.51220581 147.40315887 129.4520874 146.34681702 C127.93729805 106.66363731 127.93729805 106.66363731 137.19189453 96.20191956 C141.82243527 91.50322465 147.08480108 87.39367013 152.8114624 84.12025452 C153.1414624 84.12025452 153.4714624 84.12025452 153.8114624 84.12025452 C153.90444737 94.11740393 153.97537136 104.11444919 154.01871109 114.1119442 C154.03951986 118.75500724 154.06771372 123.39777279 154.11322021 128.04066467 C154.15691887 132.52756774 154.18064989 137.01418599 154.19097137 141.50128555 C154.19831989 143.20679325 154.21266915 144.91228667 154.23438263 146.61767197 C154.38844391 159.22772546 153.15020954 169.06965563 144.85443115 179.08119202 C136.35659818 187.56277674 125.25177439 190.4302703 113.56640625 190.53794861 C112.42274597 190.53344696 111.27908569 190.52894531 110.10076904 190.52430725 C108.86852097 190.5311705 107.63627289 190.53803375 106.36668396 190.54510498 C103.01521521 190.56017948 99.66430697 190.56189236 96.31284642 190.5561626 C93.50245645 190.55305238 90.69211579 190.55918337 87.88173288 190.56520134 C81.24571807 190.57920327 74.60983212 190.57772147 67.97381592 190.56629944 C61.15495877 190.55482121 54.33649509 190.56889853 47.51768976 190.59569591 C41.63708216 190.61793075 35.75659736 190.6244729 29.87595075 190.6186195 C26.37517737 190.61526737 22.87465608 190.61754753 19.37391853 190.63487053 C15.4663085 190.65336664 11.5591738 190.63907276 7.65155029 190.6219635 C5.93909622 190.63646545 5.93909622 190.63646545 4.19204712 190.65126038 C-7.80200763 190.54181135 -17.31853701 186.89461705 -25.87213135 178.46009827 C-32.27219831 171.45354117 -35.29900728 164.13936998 -35.32897949 154.64424133 C-35.33754471 153.01268097 -35.33754471 153.01268097 -35.34628296 151.34815979 C-35.34740082 150.16467957 -35.34851868 148.98119934 -35.34967041 147.76185608 C-35.35463531 146.50761841 -35.35960022 145.25338074 -35.36471558 143.96113586 C-35.37680267 140.52703731 -35.38427677 137.09299948 -35.38872623 133.65888691 C-35.39166361 131.51014001 -35.39576967 129.36139836 -35.40023041 127.21265411 C-35.41389523 120.4802542 -35.42356667 113.74786639 -35.4274323 107.01545358 C-35.43190977 99.26150746 -35.4494474 91.50773791 -35.47843289 83.75384545 C-35.50009733 77.7485545 -35.51013912 71.74331305 -35.51147342 65.73798347 C-35.5125181 62.15674268 -35.5183537 58.5756681 -35.53629303 54.99446869 C-35.5559391 50.99494836 -35.55146586 46.99579446 -35.54498291 42.99623108 C-35.55419769 41.82084778 -35.56341248 40.64546448 -35.57290649 39.4344635 C-35.51691193 28.38480231 -32.86379568 19.15987741 -25.1807251 10.98353577 C-17.94889586 4.16747371 -10.04090014 -0.01016285 0 0 Z " fill="#FEFEFC" transform="translate(74.18853759765625,58.87974548339844)"/>
<path d="M0 0 C11.88 0 23.76 0 36 0 C36 38.94 36 77.88 36 118 C42.38873697 112.44759496 42.38873697 112.44759496 48.4375 106.625 C49.18773437 105.86703125 49.93796875 105.1090625 50.7109375 104.328125 C51.46632813 103.55984375 52.22171875 102.7915625 53 102 C57.81213613 97.10574551 62.62424664 92.31563282 67.8828125 87.8984375 C69.97910485 86.11427214 69.97910485 86.11427214 71.43739319 84.25547791 C73.82906193 81.48473945 75.70636905 79.34175014 79.318573 78.38748169 C82.00858112 78.19265952 84.61364555 78.21129564 87.30859375 78.31640625 C88.27531509 78.32631088 89.24203644 78.33621552 90.23805237 78.34642029 C93.30612088 78.38540427 96.37052519 78.47319401 99.4375 78.5625 C101.52533871 78.59763463 103.61323388 78.62956986 105.70117188 78.65820312 C110.8021791 78.7351139 115.90046979 78.85578431 121 79 C119.91074753 82.2677574 119.29532429 82.81328716 116.71875 84.90625 C112.97674145 88.08128756 109.48513171 91.42607242 106.03125 94.90625 C105.50241211 95.43839111 104.97357422 95.97053223 104.42871094 96.51879883 C102.78382586 98.1772515 101.14147985 99.83817723 99.5 101.5 C86.64993674 114.50931456 86.64993674 114.50931456 80.5546875 119.67016602 C78.59659616 121.34505979 76.78380375 123.1418711 75 125 C76.29108381 127.76655418 77.7064804 130.04962067 79.65234375 132.3984375 C80.17570313 133.03523437 80.6990625 133.67203125 81.23828125 134.328125 C81.79902344 135.00359375 82.35976563 135.6790625 82.9375 136.375 C84.12464492 137.81953475 85.31082742 139.26486093 86.49609375 140.7109375 C87.08890137 141.4337793 87.68170898 142.15662109 88.29248047 142.90136719 C90.73499544 145.9033487 93.12122227 148.94743381 95.5 152 C99.44141854 157.04888284 103.45068148 162.037279 107.5 167 C111.75862806 172.22675744 116.00037002 177.46570762 120.1875 182.75 C120.64511719 183.32234375 121.10273437 183.8946875 121.57421875 184.484375 C123.73304265 187.22239555 125.50438424 189.85781544 127 193 C120.97253648 193.3992969 114.95292881 193.68740215 108.9152832 193.87890625 C106.86867138 193.95878031 104.82295578 194.06754677 102.77954102 194.20703125 C86.29062492 195.3033366 86.29062492 195.3033366 80.80926514 191.46655273 C76.94110598 187.73866105 74.0047758 183.496363 71.21420288 178.9276123 C69.53281609 176.25832044 67.54781793 173.89420649 65.5 171.5 C61.82124971 167.00976068 58.15891851 162.50639633 54.5 158 C46.57473756 147.70188893 46.57473756 147.70188893 38 138 C37.67 156.15 37.34 174.3 37 193 C24.79 193 12.58 193 0 193 C0 129.31 0 65.62 0 0 Z " fill="#FEFDFB" transform="translate(828,45)"/>
<path d="M0 0 C12.87 0 25.74 0 39 0 C39.03738281 5.3934375 39.07476563 10.786875 39.11328125 16.34375 C39.14357526 19.77086463 39.17473244 23.19792822 39.20898438 26.625 C39.26320851 32.05856689 39.31432235 37.49203283 39.34643555 42.92578125 C39.37254131 47.30908835 39.41299464 51.6920544 39.46318626 56.07514954 C39.47980595 57.74314617 39.49135063 59.41120173 39.49761391 61.07926941 C39.50730874 63.42495042 39.53543017 65.76976852 39.56762695 68.11523438 C39.56619186 68.7971283 39.56475677 69.47902222 39.5632782 70.18157959 C39.68043058 76.25938875 41.08114947 81.73226755 45.0625 86.4375 C49.74971777 90.21751433 55.23027094 89.51334682 61 89 C65.73601082 87.66752107 68.37421062 85.7862482 71.4375 81.9375 C73.85342059 77.39556929 74.16396331 73.71215382 74.20532227 68.68286133 C74.21522186 67.94115189 74.22512146 67.19944244 74.23532104 66.43525696 C74.26690257 63.98421417 74.29168021 61.533152 74.31640625 59.08203125 C74.33697867 57.38237505 74.35797522 55.68272393 74.37937927 53.983078 C74.4345702 49.50985837 74.48399262 45.03659279 74.53222656 40.56329346 C74.59129609 35.19594548 74.65750769 29.82868146 74.72252655 24.46140289 C74.82049861 16.30765321 74.90938025 8.15384965 75 0 C87.54 0 100.08 0 113 0 C113 37.62 113 75.24 113 114 C100.46 114 87.92 114 75 114 C74.505 106.575 74.505 106.575 74 99 C73.34 100.03125 72.68 101.0625 72 102.125 C67.48666873 108.44110664 60.46537112 113.525381 52.9296875 115.55859375 C39.03203331 117.65250698 24.70269365 117.11443829 13.03515625 108.71875 C5.27827712 102.1678348 1.59293478 92.87452405 0 83 C-0.08774911 80.26198497 -0.12650659 77.55057397 -0.11352539 74.81323242 C-0.11367142 74.00295593 -0.11381744 73.19267944 -0.1139679 72.35784912 C-0.11327347 69.69036138 -0.10550312 67.02294423 -0.09765625 64.35546875 C-0.0957904 62.5017348 -0.09436728 60.64800036 -0.09336853 58.79426575 C-0.08955651 53.92317333 -0.07973746 49.05211088 -0.06866455 44.18103027 C-0.05662028 38.33228423 -0.05204193 32.48352815 -0.04621124 26.63477325 C-0.036525 17.75649468 -0.01735923 8.87828183 0 0 Z " fill="#FEFEFC" transform="translate(496,124)"/>
<path d="M0 0 C12.87 0 25.74 0 39 0 C39.02578125 5.29804688 39.0515625 10.59609375 39.078125 16.0546875 C39.10331527 19.42713055 39.12966484 22.79948585 39.16015625 26.171875 C39.20835943 31.51530193 39.25245336 36.85852552 39.27099609 42.20214844 C39.28622928 46.514216 39.32079149 50.82574872 39.36830902 55.13757706 C39.38305454 56.7760056 39.39103706 58.41451054 39.39188385 60.05300522 C39.30042519 74.99594498 39.30042519 74.99594498 46.5 87.625 C52.72137244 90.0691106 59.1075595 89.94661689 65.4375 87.875 C70.1239284 84.44590605 73.24573691 80.52724079 75 75 C75.20347975 72.48014021 75.31088334 70.0669489 75.31884766 67.54760742 C75.32889328 66.8153595 75.3389389 66.08311157 75.34928894 65.32867432 C75.38005071 62.92094673 75.39713633 60.51332998 75.4140625 58.10546875 C75.43277981 56.43108674 75.45235364 54.75671411 75.4727478 53.08235168 C75.52401561 48.68479954 75.56366991 44.28721684 75.60089111 39.88952637 C75.64801542 34.60802461 75.7095903 29.32667388 75.76873779 24.04529572 C75.85688484 16.03025828 75.92669568 8.01524884 76 0 C88.21 0 100.42 0 113 0 C113 37.62 113 75.24 113 114 C100.79 114 88.58 114 76 114 C75.67 108.72 75.34 103.44 75 98 C73.68 99.98 72.36 101.96 71 104 C65.35241811 110.11922149 57.33780914 115.48671675 48.81445312 116.17700195 C23.51814252 116.78893082 23.51814252 116.78893082 12.6875 108 C2.67854684 98.27747158 0.01771811 86.20610146 -0.21157265 72.67155361 C-0.23894189 68.62966259 -0.22086816 64.58872644 -0.1953125 60.546875 C-0.19157407 58.79282799 -0.18873103 57.03877887 -0.18673706 55.284729 C-0.17916592 50.70796766 -0.15957484 46.13133686 -0.1373291 41.55462646 C-0.11309551 36.04196367 -0.1040586 30.5292568 -0.09242249 25.01655579 C-0.07314554 16.67761356 -0.03477785 8.33895677 0 0 Z " fill="#FEFEFD" transform="translate(1185,124)"/>
<path d="M0 0 C36.63 0 73.26 0 111 0 C108.75376197 5.61559508 108.75376197 5.61559508 106.63671875 8.3203125 C106.16886963 8.92794434 105.70102051 9.53557617 105.21899414 10.16162109 C104.71360107 10.80953613 104.20820801 11.45745117 103.6875 12.125 C99.1223321 18.08848888 94.76905753 24.15358504 90.5625 30.375 C84.76173566 38.93877595 78.76271658 47.33992349 72.67333984 55.70019531 C69.7103283 59.77249889 66.76189807 63.85533228 63.8125 67.9375 C63.25949219 68.7013501 62.70648437 69.4652002 62.13671875 70.25219727 C61.36714844 71.31651978 61.36714844 71.31651978 60.58203125 72.40234375 C60.13061768 73.02616943 59.6792041 73.64999512 59.21411133 74.29272461 C58.11300446 75.84109387 57.05391339 77.41912991 56 79 C71.84 79.33 87.68 79.66 104 80 C104 91.22 104 102.44 104 114 C66.38 114 28.76 114 -10 114 C-3.25820257 103.88730385 -3.25820257 103.88730385 -0.40625 100.1953125 C0.22410156 99.37482422 0.85445312 98.55433594 1.50390625 97.70898438 C2.16261719 96.85626953 2.82132813 96.00355469 3.5 95.125 C8.73786035 88.3003477 13.91962765 81.44271119 19 74.5 C24.69984698 66.71313971 30.51967155 59.02407608 36.40820312 51.37890625 C37.03533203 50.56164062 37.66246094 49.744375 38.30859375 48.90234375 C38.85314209 48.19585693 39.39769043 47.48937012 39.95874023 46.76147461 C43.05760244 42.56924516 46.01041068 38.27084189 49 34 C32.83 34 16.66 34 0 34 C0 22.78 0 11.56 0 0 Z " fill="#FEFEFC" transform="translate(1395,124)"/>
<path d="M0 0 C7.66400318 5.16923801 13.27586592 11.08318191 18 19 C18.38671875 19.62132813 18.7734375 20.24265625 19.171875 20.8828125 C27.19613949 35.14131324 27.76603163 51.65605626 23.8515625 67.1953125 C23.03905213 69.87137877 22.0852154 72.42379301 21 75 C20.34 75 19.68 75 19 75 C19 74.34 19 73.68 19 73 C18.4328125 72.76152344 17.865625 72.52304688 17.28125 72.27734375 C14.51836033 70.73031477 12.68958559 68.84581785 10.5 66.5625 C9.01899266 65.02316531 7.51978845 63.50105866 6 62 C5.49178711 61.46584473 4.98357422 60.93168945 4.45996094 60.38134766 C0.59002792 58.20825506 -3.21768374 58.63185039 -7.578125 58.70703125 C-8.5046991 58.71127609 -9.43127319 58.71552094 -10.38592529 58.71989441 C-13.34091434 58.73666678 -16.29521761 58.77431645 -19.25 58.8125 C-21.25519847 58.8275487 -23.26040765 58.84123678 -25.265625 58.85351562 C-30.17734696 58.88656562 -35.08855726 58.93833818 -40 59 C-38.87739249 60.12852864 -37.75393953 61.25621631 -36.63012695 62.38354492 C-36.00459427 63.01161545 -35.37906158 63.63968597 -34.73457336 64.28678894 C-32.95003937 66.04934533 -31.11023829 67.70226093 -29.1875 69.3125 C-25.06114824 72.86419543 -21.27463821 76.70776709 -17.453125 80.58203125 C-15.28485616 82.71922617 -13.06933379 84.71783676 -10.75 86.6875 C-7.07248721 89.82684019 -4.0559491 93.25646236 -1 97 C-14.08000455 102.27789657 -30.96099618 103.63249454 -44.296875 98.32421875 C-58.8847901 91.17782682 -68.92665634 81.27508341 -74.3125 65.8125 C-79.18557872 50.78203357 -78.527674 33.47876823 -71.375 19.3125 C-65.78309094 9.86410193 -58.88822055 2.81618048 -49 -2 C-48.20464844 -2.4125 -47.40929687 -2.825 -46.58984375 -3.25 C-32.59201569 -9.48087246 -13.31683815 -7.02667245 0 0 Z " fill="#F5BA43" transform="translate(397,105)"/>
<path d="M0 0 C11.04211234 9.25236331 18.89157252 21.56538107 21 36 C22.29065761 61.13431868 22.29065761 61.13431868 16 72 C15.071875 71.21625 14.14375 70.4325 13.1875 69.625 C12.52878906 69.08423828 11.87007812 68.54347656 11.19140625 67.98632812 C9 66 9 66 6.96484375 63.49804688 C1.81503286 57.65614954 -1.9668028 55.45768381 -9.64848328 54.89584351 C-14.50054751 54.73966516 -19.33467173 54.7829506 -24.1875 54.875 C-26.20898512 54.87694483 -28.23047987 54.87437961 -30.25195312 54.8671875 C-35.16962057 54.8594144 -40.08313672 54.91281819 -45 55 C-45 55.66 -45 56.32 -45 57 C-44.18789062 57.31904297 -44.18789062 57.31904297 -43.359375 57.64453125 C-40.14675974 59.49018936 -37.79448884 62.03963247 -35.25 64.6875 C-31.28106261 68.74307177 -27.25912118 72.60710902 -22.93359375 76.28515625 C-19.85203354 79.01809551 -17.0073514 81.9816893 -14.12109375 84.91796875 C-12.29238411 86.71300049 -10.43840693 88.34148247 -8.4375 89.9375 C-7.633125 90.618125 -6.82875 91.29875 -6 92 C-6 92.66 -6 93.32 -6 94 C-17.52090812 99.4077732 -33.34059594 100.20029725 -45.5625 96.375 C-51.08226993 94.18559405 -56.11989907 91.3726352 -61 88 C-61.62519531 87.57203125 -62.25039062 87.1440625 -62.89453125 86.703125 C-72.42983248 79.38483512 -78.46350136 67.47150601 -80.578125 55.8125 C-82.6617569 36.98264134 -80.56921042 21.9724861 -69.1328125 6.46875 C-52.22708927 -13.09977945 -20.5298513 -14.27771503 0 0 Z " fill="#F5BA43" transform="translate(1091,108)"/>
<path d="M0 0 C0 11.88 0 23.76 0 36 C-2.31 34.02 -4.62 32.04 -7 30 C-16.62232741 23.05558446 -27.10387737 19.69583248 -39 21 C-48.03964183 22.96452059 -54.60774903 27.53992418 -60 35 C-64.57326424 42.62210707 -64.03639989 51.86475386 -61.9375 60.3125 C-59.49491554 67.27838902 -54.92817225 72.15875863 -48.6875 76 C-39.25583012 80.22699839 -27.39763966 79.28940397 -17.875 75.875 C-10.74860664 72.70272149 -5.4538998 68.48200906 0 63 C0.24805039 68.01672377 0.42900266 73.02985501 0.54931641 78.05126953 C0.59947485 79.7569801 0.66762724 81.46226336 0.75439453 83.16650391 C1.4567763 97.3215624 1.4567763 97.3215624 -2.10351562 101.42358398 C-4.71640153 103.01940744 -7.09009589 104.06650708 -10 105 C-10.84997559 105.32629395 -11.69995117 105.65258789 -12.57568359 105.98876953 C-29.74303299 112.49254641 -51.12265574 110.59402912 -67.6328125 103.421875 C-82.1978294 96.72235204 -92.96104838 87.41781219 -98.9375 72.1875 C-99.66229572 70.13780888 -100.35019331 68.07468402 -101 66 C-101.36480469 64.88109375 -101.72960937 63.7621875 -102.10546875 62.609375 C-105.69355241 48.13169245 -102.73780085 31.82334637 -95.3125 19.0625 C-84.49711689 2.98826088 -68.80843392 -5.66855822 -50.08984375 -9.61328125 C-31.52000092 -11.93744616 -16.95799074 -8.47899537 0 0 Z " fill="#FEFEFC" transform="translate(802,131)"/>
<path d="M0 0 C1.11829227 0.95248515 2.23572573 1.90597867 3.35279846 2.8598938 C4.28634328 3.65619548 4.28634328 3.65619548 5.2387476 4.46858406 C7.38171525 6.33190292 9.40232519 8.28916492 11.40234375 10.3046875 C12.14677734 11.05234375 12.89121094 11.8 13.65820312 12.5703125 C14.41037109 13.33085938 15.16253906 14.09140625 15.9375 14.875 C16.71673828 15.65875 17.49597656 16.4425 18.29882812 17.25 C20.20154085 19.16438581 22.10186171 21.08108034 24 23 C22.50631485 26.48029121 20.52082582 28.72618348 17.84921265 31.39129639 C16.97980545 32.26345291 16.11039825 33.13560944 15.21464539 34.03419495 C14.24914637 34.9926163 13.28355173 35.95094133 12.31787109 36.90917969 C11.30238106 37.92410545 10.28733148 38.93947208 9.27268982 39.95524597 C6.5190921 42.70941754 3.75937117 45.45737879 0.99851561 48.20427227 C-1.88651097 51.076797 -4.76587542 53.95498586 -7.64584351 56.83258057 C-13.09937878 62.27989947 -18.55799229 67.72210002 -24.01844537 73.16248345 C-30.2351334 79.35681738 -36.44614388 85.55683076 -42.65668225 91.75732946 C-55.43147778 104.51121944 -68.21339139 117.257954 -81 130 C-84.73411919 128.25258746 -87.12190339 126.11990518 -90.04394531 123.18310547 C-90.53220795 122.69513489 -91.02047058 122.20716431 -91.52352905 121.70440674 C-93.12984962 120.09669725 -94.72897713 118.48202899 -96.328125 116.8671875 C-97.44298317 115.74859765 -98.55828487 114.63044971 -99.67401123 113.51272583 C-102.60470609 110.57440675 -105.52934422 107.63013045 -108.45275879 104.68457031 C-111.43882725 101.67801738 -114.43058859 98.67714118 -117.421875 95.67578125 C-123.28683456 89.78939314 -129.14540732 83.896699 -135 78 C-133.26239853 74.28286264 -131.14323122 71.91258988 -128.2109375 69.015625 C-127.74765045 68.55516785 -127.2843634 68.09471069 -126.80703735 67.62030029 C-125.33434102 66.15874922 -123.85482597 64.70432832 -122.375 63.25 C-121.37193678 62.25697389 -120.36932743 61.26348911 -119.3671875 60.26953125 C-116.91669165 57.84102059 -114.4600333 55.41885325 -112 53 C-105.44622903 58.38640924 -99.52753365 64.35885127 -93.5625 70.375 C-92.53474017 71.40778595 -91.50674715 72.44033991 -90.47851562 73.47265625 C-87.98298402 75.97910287 -85.49061918 78.4886708 -83 81 C-79.96135052 79.64044743 -77.86512063 78.11309872 -75.51983643 75.76034546 C-74.8496196 75.09287796 -74.17940277 74.42541046 -73.48887634 73.73771667 C-72.7645491 73.00619888 -72.04022186 72.27468109 -71.29394531 71.52099609 C-70.52282913 70.75017197 -69.75171295 69.97934784 -68.95722961 69.18516541 C-66.40942562 66.635968 -63.86877909 64.07975928 -61.328125 61.5234375 C-59.56307862 59.75466104 -57.79759018 57.98632561 -56.03167725 56.21841431 C-51.8596509 52.03953172 -47.69210152 47.85621906 -43.52669883 43.67073691 C-38.31792743 38.43740365 -33.10223734 33.21098257 -27.88671875 27.984375 C-18.58558187 18.66178733 -9.29061738 9.33307054 0 0 Z " fill="#FEFEFD" transform="translate(204,83)"/>
<path d="M0 0 C12.21 0 24.42 0 37 0 C37 37.62 37 75.24 37 114 C24.79 114 12.58 114 0 114 C0 76.38 0 38.76 0 0 Z " fill="#FEFDFA" transform="translate(639,124)"/>
<path d="M0 0 C11.88 0 23.76 0 36 0 C36 37.62 36 75.24 36 114 C24.12 114 12.24 114 0 114 C0 76.38 0 38.76 0 0 Z " fill="#FEFEFD" transform="translate(1329,124)"/>
<path d="M0 0 C4.53512325 2.68071904 8.20833648 6.72917296 10.5625 11.4375 C11.5485026 25.1656901 11.5485026 25.1656901 7.5625 30.4375 C1.88356125 36.36023158 -3.08699238 38.48224122 -11.3125 38.8125 C-17.65917602 38.68666751 -22.32524718 37.41443748 -26.96484375 32.9765625 C-31.94764082 27.28606381 -32.97266187 22.91266093 -32.80078125 15.4765625 C-32.10481149 9.65436388 -29.69591771 6.39367594 -25.3359375 2.6171875 C-17.75450872 -2.69228216 -8.59010982 -3.76125267 0 0 Z " fill="#FEFEFC" transform="translate(668.4375,62.5625)"/>
<path d="M0 0 C5.12419292 2.95054334 8.44070444 6.54203426 10.625 12.0625 C11.77204771 18.36230112 11.05079043 23.86662346 7.82421875 29.4140625 C6.04456853 31.86035693 4.16477619 33.42978674 1.625 35.0625 C0.779375 35.64 -0.06625 36.2175 -0.9375 36.8125 C-7.72357736 39.28016449 -15.87354745 39.15727433 -22.5546875 36.25 C-27.03246287 33.32887615 -30.68712347 29.12612959 -32.375 24.0625 C-32.84245701 18.32274092 -33.20345527 12.96104334 -30.875 7.625 C-22.15915442 -1.30874172 -12.14886915 -5.36467515 0 0 Z " fill="#FEFEFC" transform="translate(1358.375,62.9375)"/>
</svg>
